<svg enable-background="new 0 0 1246.438 205.49" height="205.49" viewBox="0 0 1246.438 205.49" width="1246.438" xmlns="http://www.w3.org/2000/svg"><path d="m50.38 102.676c.654-2.725 1.679-3.67 4.542-3.604 8.801.203 17.609.073 26.6.073v23.249c-1.839 0-3.598-.029-5.364 0-10.16.182-17.726 7.762-17.697 17.719.022 9.462 7.667 17.108 17.486 17.115 42.61.072 85.221.072 127.838 0 9.957-.021 17.457-7.776 17.377-17.566-.073-9.666-7.828-17.195-17.762-17.261-1.672 0-3.343 0-5.233 0 0-7.754 0-15.211 0-22.893.545-.109 1.221-.349 1.89-.349 8.474-.021 16.948.007 25.422-.043 1.751-.015 2.9.218 3.401 2.231 6.424 26.033 12.915 52.037 19.39 78.055.051.226-.029.473-.065.938-72.19 0-144.394 0-217.078 0 2.943-11.934 5.792-23.533 8.677-35.125 3.533-14.18 7.175-28.338 10.576-42.539z" fill="#008575"/><path d="m186.024 145.468c-30.779 0-61.463 0-92.416 0 0-38.534 0-77.052 0-115.92h92.416z" fill="#fff"/><path d="m186.024 29.548c-30.88 0-61.478 0-92.416 0v115.92h92.416c0-38.751 0-77.27 0-115.92zm-131.102 69.523c-2.864-.065-3.888.879-4.542 3.604-3.401 14.201-7.042 28.359-10.575 42.538-2.885 11.592-5.734 23.191-8.677 35.125h217.078c.036-.465.116-.712.065-.938-6.476-26.019-12.966-52.022-19.39-78.055-.501-2.013-1.65-2.246-3.401-2.231-8.474.051-16.948.022-25.422.043-.668 0-1.345.24-1.89.349v22.893h5.233c9.935.065 17.689 7.595 17.762 17.261.08 9.79-7.42 17.545-17.377 17.566-42.618.072-85.228.072-127.838 0-9.819-.007-17.464-7.653-17.486-17.115-.029-9.957 7.537-17.537 17.697-17.719 1.766-.029 3.525 0 5.364 0 0-7.995 0-15.444 0-23.249-8.991.001-17.8.131-26.601-.072zm-29.165 93.092c-6.904 0-8.976-2.492-7.304-9.28 6.606-26.738 13.321-53.439 20-80.156.785-3.161 1.577-6.323 2.376-9.491 1.076-4.245 2.784-5.662 7.123-5.676 10.654-.029 21.309-.015 31.963-.029.458 0 .923-.124 1.788-.24 0-20.066 0-39.797 0-59.522 0-.974-.015-1.94.007-2.907.08-5.095 1.955-7.028 7.064-7.035 19.128-.036 38.264-.029 57.393-.029 14.644 0 29.296-.007 43.947.021 6.09.007 7.82 1.73 7.82 7.748.015 19.128.007 38.257.007 57.378v4.571h3.997c9.928.015 19.855 0 29.783.043 4.201.022 6.054 1.403 7.035 5.334 7.522 30.118 15.044 60.227 22.486 90.359 1.555 6.301-.589 8.91-7.021 8.91-54.239.021-108.478.021-162.723.021-21.91.001-43.822.001-65.741-.02z" fill="#274b47"/><path d="m157.045 67.984c.734-.736 1.479-1.544 2.631-1.395.628.083 1.344.278 1.81.672 1.28 1.074 2.478 2.248 3.65 3.44 1.418 1.443 1.327 3.301-.194 4.83-5.963 5.995-11.928 11.983-17.901 17.976-4.404 4.413-8.819 8.817-13.227 13.227-1.766 1.768-3.53 1.76-5.301-.009-4.818-4.822-9.637-9.637-14.454-14.458-1.968-1.968-1.945-3.57.077-5.533.849-.823 1.72-1.634 2.573-2.454 1.696-1.636 3.146-1.649 4.804 0 2.953 2.941 5.891 5.894 8.821 8.857.234.232.363.566.692 1.086.443-.593.63-.92.883-1.172 8.375-8.36 16.754-16.717 25.136-25.067z" fill="#fff"/><path d="m159.677 66.589c-1.152-.149-1.897.659-2.631 1.395-8.382 8.35-16.762 16.707-25.135 25.068-.253.252-.44.579-.883 1.172-.329-.52-.458-.854-.692-1.086-2.93-2.963-5.868-5.916-8.821-8.857-1.658-1.649-3.107-1.636-4.804 0-.853.82-1.724 1.63-2.573 2.454-2.021 1.963-2.045 3.564-.077 5.533 4.816 4.82 9.635 9.635 14.454 14.458 1.771 1.769 3.535 1.776 5.301.009 4.408-4.409 8.823-8.813 13.227-13.227 5.973-5.993 11.938-11.981 17.901-17.976 1.521-1.528 1.612-3.387.194-4.83-1.172-1.192-2.37-2.366-3.65-3.44-.467-.395-1.183-.59-1.811-.673zm-20.377 59.122c-21.407-.206-38.353-17.172-38.342-38.453.013-21.349 17.136-38.424 38.49-38.362 21.323.062 38.34 17.102 38.287 38.47-.049 21.422-17.12 38.192-38.435 38.345z" fill="#274b47"/><g fill="#727272"><path d="m385.763 157.191h-56.333v-100.348h54.093v14.135h-37.438v28.412h34.498v14.063h-34.498v29.672h39.678z"/><path d="m418.092 157.191h-16.303v-106.086h16.303z"/><path d="m499.897 125.774h-48.844c.185 6.622 2.227 11.73 6.122 15.322 3.896 3.595 9.25 5.39 16.062 5.39 7.649 0 14.671-2.286 21.062-6.857v13.083c-6.531 4.106-15.162 6.158-25.891 6.158-10.543 0-18.814-3.252-24.808-9.761-5.995-6.509-8.992-15.663-8.992-27.469 0-11.147 3.299-20.231 9.901-27.253 6.602-7.023 14.801-10.534 24.598-10.534 9.796 0 17.376 3.149 22.742 9.447 5.365 6.301 8.047 15.047 8.047 26.243v6.231zm-15.675-11.48c-.047-5.829-1.423-10.368-4.129-13.609-2.706-3.244-6.438-4.865-11.196-4.865-4.666 0-8.619 1.703-11.862 5.108-3.241 3.403-5.235 7.861-5.981 13.366z"/><path d="m566.657 153.904c-5.738 3.309-12.525 4.966-20.363 4.966-10.637 0-19.221-3.322-25.752-9.972-6.532-6.646-9.798-15.266-9.798-25.857 0-11.801 3.511-21.283 10.532-28.445 7.021-7.159 16.411-10.742 28.166-10.742 6.53 0 12.292 1.144 17.285 3.43v15.117c-4.993-3.734-10.311-5.597-15.955-5.597-6.858 0-12.479 2.318-16.864 6.96-4.387 4.642-6.579 10.721-6.579 18.231 0 7.418 2.064 13.271 6.193 17.563 4.128 4.293 9.668 6.44 16.619 6.44 5.831 0 11.336-2.077 16.516-6.23z"/><path d="m620.539 156.423c-3.173 1.583-7.347 2.376-12.524 2.376-13.904 0-20.854-6.669-20.854-20.013v-40.515h-11.966v-12.737h11.966v-16.585l16.234-4.62v21.205h17.144v12.737h-17.144v35.827c0 4.247.771 7.277 2.31 9.099 1.539 1.819 4.105 2.729 7.698 2.729 2.752 0 5.13-.793 7.137-2.378v12.875z"/><path d="m642.723 70.487c-2.66 0-4.935-.859-6.824-2.588-1.889-1.725-2.831-3.916-2.831-6.579 0-2.658.942-4.876 2.831-6.646 1.889-1.771 4.164-2.658 6.824-2.658 2.753 0 5.084.887 6.998 2.658 1.913 1.771 2.869 3.988 2.869 6.646 0 2.518-.956 4.679-2.869 6.476-1.913 1.794-4.245 2.691-6.998 2.691zm8.048 86.704h-16.235v-71.657h16.235z"/><path d="m703.743 158.87c-11.056 0-19.885-3.347-26.486-10.042-6.601-6.692-9.901-15.568-9.901-26.626 0-12.036 3.441-21.433 10.322-28.2 6.881-6.763 16.153-10.148 27.816-10.148 11.196 0 19.918 3.289 26.171 9.868 6.252 6.579 9.377 15.7 9.377 27.358 0 11.436-3.371 20.587-10.112 27.468s-15.805 10.322-27.187 10.322zm.771-62.068c-6.347 0-11.36 2.213-15.044 6.645-3.688 4.434-5.529 10.545-5.529 18.336 0 7.511 1.865 13.423 5.599 17.74 3.732 4.315 8.722 6.474 14.974 6.474 6.391 0 11.302-2.124 14.731-6.368 3.427-4.247 5.141-10.291 5.141-18.124 0-7.885-1.714-13.973-5.141-18.266-3.429-4.293-8.34-6.437-14.731-6.437z"/><path d="m821.377 157.191h-16.235v-40.376c0-13.39-4.733-20.083-14.205-20.083-4.944 0-9.029 1.852-12.246 5.562-3.219 3.708-4.83 8.385-4.83 14.03v40.867h-16.305v-71.657h16.305v11.896h.28c5.365-9.051 13.109-13.576 23.232-13.576 7.793 0 13.738 2.535 17.847 7.593 4.105 5.062 6.156 12.375 6.156 21.937v43.807z"/><path d="m921.307 150.332c-10.451 5.693-22.092 8.538-34.917 8.538-14.836 0-26.85-4.615-36.041-13.854s-13.785-21.459-13.785-36.668c0-15.538 5.025-28.283 15.078-38.242 10.055-9.962 22.824-14.941 38.314-14.941 11.15 0 20.527 1.633 28.132 4.896v17.146c-7.696-5.132-16.863-7.699-27.501-7.699-10.684 0-19.443 3.526-26.278 10.565-6.835 7.047-10.249 16.168-10.249 27.362 0 11.523 2.937 20.587 8.816 27.188 5.877 6.604 13.857 9.901 23.933 9.901 6.903 0 12.875-1.328 17.916-3.988v-23.861h-21.135v-13.995h37.718v47.652z"/><path d="m1003.601 157.191h-16.236v-11.339h-.278c-4.712 8.683-12.038 13.018-21.972 13.018-16.938 0-25.406-10.169-25.406-30.508v-42.828h16.236v41.147c0 12.875 4.969 19.315 14.904 19.315 4.807 0 8.76-1.775 11.865-5.321 3.101-3.545 4.65-8.187 4.65-13.924v-41.217h16.236v71.657z"/><path d="m1079.736 157.191h-15.744v-11.194h-.28c-4.946 8.582-12.2 12.873-21.762 12.873-7.048 0-12.562-1.911-16.55-5.737s-5.982-8.889-5.982-15.185c0-13.528 7.788-21.414 23.372-23.653l21.272-3.009c0-10.219-4.853-15.325-14.556-15.325-8.536 0-16.234 2.939-23.094 8.819v-14.208c7.559-4.477 16.282-6.719 26.173-6.719 18.102 0 27.15 8.913 27.15 26.733v46.605zm-15.674-35.197-15.047 2.097c-4.663.609-8.174 1.74-10.53 3.393-2.357 1.659-3.534 4.563-3.534 8.714 0 3.032 1.085 5.518 3.254 7.455 2.172 1.933 5.073 2.901 8.711 2.901 4.946 0 9.04-1.735 12.281-5.211 3.243-3.476 4.865-7.851 4.865-13.123z"/><path d="m1141.11 101.001c-1.961-1.542-4.784-2.314-8.472-2.314-4.804 0-8.814 2.172-12.031 6.509-3.222 4.339-4.83 10.243-4.83 17.707v34.288h-16.235v-71.657h16.235v14.766h.278c1.584-5.041 4.025-8.97 7.313-11.792 3.292-2.82 6.963-4.231 11.023-4.231 2.938 0 5.176.442 6.719 1.328z"/><path d="m1216.475 157.191h-16.234v-12.176h-.28c-5.228 9.239-13.272 13.854-24.144 13.854-8.816 0-15.873-3.204-21.168-9.621-5.295-6.414-7.941-15.151-7.941-26.208 0-11.849 2.928-21.343 8.783-28.478 5.852-7.14 13.655-10.709 23.405-10.709 9.655 0 16.679 3.874 21.064 11.617h.28v-44.365h16.234v106.086zm-16.024-32.75v-9.375c0-5.088-1.656-9.401-4.97-12.947s-7.534-5.316-12.665-5.316c-6.065 0-10.837 2.262-14.311 6.785-3.478 4.526-5.213 10.802-5.213 18.825 0 7.278 1.667 13.026 5.001 17.252 3.338 4.221 7.828 6.333 13.473 6.333 5.552 0 10.053-2.042 13.504-6.123 3.452-4.086 5.181-9.227 5.181-15.434z"/></g></svg>