<?xml version="1.0" encoding="utf-8"?>
<!-- Generator: Adobe Illustrator 16.0.0, SVG Export Plug-In . SVG Version: 6.00 Build 0)  -->
<!DOCTYPE svg PUBLIC "-//W3C//DTD SVG 1.1//EN" "http://www.w3.org/Graphics/SVG/1.1/DTD/svg11.dtd">
<svg version="1.1" id="Layer_1" xmlns="http://www.w3.org/2000/svg" xmlns:xlink="http://www.w3.org/1999/xlink" x="0px" y="0px"
	 width="1246.438px" height="205.49px" viewBox="0 0 1246.438 205.49" enable-background="new 0 0 1246.438 205.49"
	 xml:space="preserve">
<g>
	<g>
		<g id="XMLID_2_">
			<g>
				<path fill="#008575" d="M50.38,102.676c0.654-2.725,1.679-3.67,4.542-3.604c8.801,0.203,17.609,0.073,26.6,0.073
					c0,7.805,0,15.254,0,23.249c-1.839,0-3.598-0.029-5.364,0c-10.16,0.182-17.726,7.762-17.697,17.719
					c0.022,9.462,7.667,17.108,17.486,17.115c42.61,0.072,85.221,0.072,127.838,0c9.957-0.021,17.457-7.776,17.377-17.566
					c-0.073-9.666-7.828-17.195-17.762-17.261c-1.672,0-3.343,0-5.233,0c0-7.754,0-15.211,0-22.893
					c0.545-0.109,1.221-0.349,1.89-0.349c8.474-0.021,16.948,0.007,25.422-0.043c1.751-0.015,2.9,0.218,3.401,2.231
					c6.424,26.033,12.915,52.037,19.39,78.055c0.051,0.226-0.029,0.473-0.065,0.938c-72.19,0-144.394,0-217.078,0
					c2.943-11.934,5.792-23.533,8.677-35.125C43.337,131.035,46.979,116.877,50.38,102.676z"/>
				<path fill="#FFFFFF" d="M186.024,145.468c-30.779,0-61.463,0-92.416,0c0-38.534,0-77.052,0-115.92c30.938,0,61.536,0,92.416,0
					C186.024,68.198,186.024,106.717,186.024,145.468z"/>
				<path fill="#274B47" d="M186.024,29.548c-30.88,0-61.478,0-92.416,0c0,38.868,0,77.386,0,115.92c30.953,0,61.637,0,92.416,0
					C186.024,106.717,186.024,68.198,186.024,29.548z M54.922,99.071c-2.864-0.065-3.888,0.879-4.542,3.604
					c-3.401,14.201-7.042,28.359-10.575,42.538c-2.885,11.592-5.734,23.191-8.677,35.125c72.684,0,144.888,0,217.078,0
					c0.036-0.465,0.116-0.712,0.065-0.938c-6.476-26.019-12.966-52.022-19.39-78.055c-0.501-2.013-1.65-2.246-3.401-2.231
					c-8.474,0.051-16.948,0.022-25.422,0.043c-0.668,0-1.345,0.24-1.89,0.349c0,7.682,0,15.139,0,22.893c1.89,0,3.561,0,5.233,0
					c9.935,0.065,17.689,7.595,17.762,17.261c0.08,9.79-7.42,17.545-17.377,17.566c-42.618,0.072-85.228,0.072-127.838,0
					c-9.819-0.007-17.464-7.653-17.486-17.115c-0.029-9.957,7.537-17.537,17.697-17.719c1.766-0.029,3.525,0,5.364,0
					c0-7.995,0-15.444,0-23.249C72.532,99.144,63.723,99.274,54.922,99.071z M25.757,192.163c-6.904,0-8.976-2.492-7.304-9.28
					c6.606-26.738,13.321-53.439,20-80.156c0.785-3.161,1.577-6.323,2.376-9.491c1.076-4.245,2.784-5.662,7.123-5.676
					c10.654-0.029,21.309-0.015,31.963-0.029c0.458,0,0.923-0.124,1.788-0.24c0-20.066,0-39.797,0-59.522
					c0-0.974-0.015-1.94,0.007-2.907c0.08-5.095,1.955-7.028,7.064-7.035c19.128-0.036,38.264-0.029,57.393-0.029
					c14.644,0,29.296-0.007,43.947,0.021c6.09,0.007,7.82,1.73,7.82,7.748c0.015,19.128,0.007,38.257,0.007,57.378
					c0,1.33,0,2.66,0,4.571c1.453,0,2.725,0,3.997,0c9.928,0.015,19.855,0,29.783,0.043c4.201,0.022,6.054,1.403,7.035,5.334
					c7.522,30.118,15.044,60.227,22.486,90.359c1.555,6.301-0.589,8.91-7.021,8.91c-54.239,0.021-108.478,0.021-162.723,0.021
					C69.588,192.184,47.676,192.184,25.757,192.163z"/>
			</g>
			<g>
			</g>
		</g>
	</g>
	<g>
		<g id="XMLID_1_">
			<g>
				<path fill="#FFFFFF" d="M157.045,67.984c0.734-0.736,1.479-1.544,2.631-1.395c0.628,0.083,1.344,0.278,1.81,0.672
					c1.28,1.074,2.478,2.248,3.65,3.44c1.418,1.443,1.327,3.301-0.194,4.83c-5.963,5.995-11.928,11.983-17.901,17.976
					c-4.404,4.413-8.819,8.817-13.227,13.227c-1.766,1.768-3.53,1.76-5.301-0.009c-4.818-4.822-9.637-9.637-14.454-14.458
					c-1.968-1.968-1.945-3.57,0.077-5.533c0.849-0.823,1.72-1.634,2.573-2.454c1.696-1.636,3.146-1.649,4.804,0
					c2.953,2.941,5.891,5.894,8.821,8.857c0.234,0.232,0.363,0.566,0.692,1.086c0.443-0.593,0.63-0.92,0.883-1.172
					C140.284,84.691,148.663,76.334,157.045,67.984z"/>
				<path fill="#274B47" d="M159.677,66.589c-1.152-0.149-1.897,0.659-2.631,1.395c-8.382,8.35-16.762,16.707-25.135,25.068
					c-0.253,0.252-0.44,0.579-0.883,1.172c-0.329-0.52-0.458-0.854-0.692-1.086c-2.93-2.963-5.868-5.916-8.821-8.857
					c-1.658-1.649-3.107-1.636-4.804,0c-0.853,0.82-1.724,1.63-2.573,2.454c-2.021,1.963-2.045,3.564-0.077,5.533
					c4.816,4.82,9.635,9.635,14.454,14.458c1.771,1.769,3.535,1.776,5.301,0.009c4.408-4.409,8.823-8.813,13.227-13.227
					c5.973-5.993,11.938-11.981,17.901-17.976c1.521-1.528,1.612-3.387,0.194-4.83c-1.172-1.192-2.37-2.366-3.65-3.44
					C161.021,66.867,160.305,66.672,159.677,66.589z M139.3,125.711c-21.407-0.206-38.353-17.172-38.342-38.453
					c0.013-21.349,17.136-38.424,38.49-38.362c21.323,0.062,38.34,17.102,38.287,38.47
					C177.686,108.788,160.615,125.558,139.3,125.711z"/>
			</g>
			<g>
			</g>
		</g>
	</g>
</g>
<path fill="#727272" d="M385.763,157.191H329.43V56.843h54.093v14.135h-37.438V99.39h34.498v14.063h-34.498v29.672h39.678V157.191z"
	/>
<path fill="#727272" d="M418.092,157.191h-16.303V51.105h16.303V157.191z"/>
<path fill="#727272" d="M499.897,125.774h-48.844c0.185,6.622,2.227,11.73,6.122,15.322c3.896,3.595,9.25,5.39,16.062,5.39
	c7.649,0,14.671-2.286,21.062-6.857v13.083c-6.531,4.106-15.162,6.158-25.891,6.158c-10.543,0-18.814-3.252-24.808-9.761
	c-5.995-6.509-8.992-15.663-8.992-27.469c0-11.147,3.299-20.231,9.901-27.253c6.602-7.023,14.801-10.534,24.598-10.534
	c9.796,0,17.376,3.149,22.742,9.447c5.365,6.301,8.047,15.047,8.047,26.243V125.774z M484.222,114.294
	c-0.047-5.829-1.423-10.368-4.129-13.609c-2.706-3.244-6.438-4.865-11.196-4.865c-4.666,0-8.619,1.703-11.862,5.108
	c-3.241,3.403-5.235,7.861-5.981,13.366H484.222z"/>
<path fill="#727272" d="M566.657,153.904c-5.738,3.309-12.525,4.966-20.363,4.966c-10.637,0-19.221-3.322-25.752-9.972
	c-6.532-6.646-9.798-15.266-9.798-25.857c0-11.801,3.511-21.283,10.532-28.445c7.021-7.159,16.411-10.742,28.166-10.742
	c6.53,0,12.292,1.144,17.285,3.43v15.117c-4.993-3.734-10.311-5.597-15.955-5.597c-6.858,0-12.479,2.318-16.864,6.96
	c-4.387,4.642-6.579,10.721-6.579,18.231c0,7.418,2.064,13.271,6.193,17.563c4.128,4.293,9.668,6.44,16.619,6.44
	c5.831,0,11.336-2.077,16.516-6.23V153.904z"/>
<path fill="#727272" d="M620.539,156.423c-3.173,1.583-7.347,2.376-12.524,2.376c-13.904,0-20.854-6.669-20.854-20.013V98.271
	h-11.966V85.534h11.966V68.949l16.234-4.62v21.205h17.144v12.737h-17.144v35.827c0,4.247,0.771,7.277,2.31,9.099
	c1.539,1.819,4.105,2.729,7.698,2.729c2.752,0,5.13-0.793,7.137-2.378V156.423z"/>
<path fill="#727272" d="M642.723,70.487c-2.66,0-4.935-0.859-6.824-2.588c-1.889-1.725-2.831-3.916-2.831-6.579
	c0-2.658,0.942-4.876,2.831-6.646c1.889-1.771,4.164-2.658,6.824-2.658c2.753,0,5.084,0.887,6.998,2.658
	c1.913,1.771,2.869,3.988,2.869,6.646c0,2.518-0.956,4.679-2.869,6.476C647.808,69.59,645.476,70.487,642.723,70.487z
	 M650.771,157.191h-16.235V85.534h16.235V157.191z"/>
<path fill="#727272" d="M703.743,158.87c-11.056,0-19.885-3.347-26.486-10.042c-6.601-6.692-9.901-15.568-9.901-26.626
	c0-12.036,3.441-21.433,10.322-28.2c6.881-6.763,16.153-10.148,27.816-10.148c11.196,0,19.918,3.289,26.171,9.868
	c6.252,6.579,9.377,15.7,9.377,27.358c0,11.436-3.371,20.587-10.112,27.468C724.189,155.429,715.125,158.87,703.743,158.87z
	 M704.514,96.802c-6.347,0-11.36,2.213-15.044,6.645c-3.688,4.434-5.529,10.545-5.529,18.336c0,7.511,1.865,13.423,5.599,17.74
	c3.732,4.315,8.722,6.474,14.974,6.474c6.391,0,11.302-2.124,14.731-6.368c3.427-4.247,5.141-10.291,5.141-18.124
	c0-7.885-1.714-13.973-5.141-18.266C715.816,98.946,710.905,96.802,704.514,96.802z"/>
<path fill="#727272" d="M821.377,157.191h-16.235v-40.376c0-13.39-4.733-20.083-14.205-20.083c-4.944,0-9.029,1.852-12.246,5.562
	c-3.219,3.708-4.83,8.385-4.83,14.03v40.867h-16.305V85.534h16.305v11.896h0.28c5.365-9.051,13.109-13.576,23.232-13.576
	c7.793,0,13.738,2.535,17.847,7.593c4.105,5.062,6.156,12.375,6.156,21.937V157.191z"/>
<path fill="#727272" d="M921.307,150.332c-10.451,5.693-22.092,8.538-34.917,8.538c-14.836,0-26.85-4.615-36.041-13.854
	s-13.785-21.459-13.785-36.668c0-15.538,5.025-28.283,15.078-38.242c10.055-9.962,22.824-14.941,38.314-14.941
	c11.15,0,20.527,1.633,28.132,4.896v17.146c-7.696-5.132-16.863-7.699-27.501-7.699c-10.684,0-19.443,3.526-26.278,10.565
	c-6.835,7.047-10.249,16.168-10.249,27.362c0,11.523,2.937,20.587,8.816,27.188c5.877,6.604,13.857,9.901,23.933,9.901
	c6.903,0,12.875-1.328,17.916-3.988v-23.861h-21.135V102.68h37.718V150.332z"/>
<path fill="#727272" d="M1003.601,157.191h-16.236v-11.339h-0.278c-4.712,8.683-12.038,13.018-21.972,13.018
	c-16.938,0-25.406-10.169-25.406-30.508V85.534h16.236v41.147c0,12.875,4.969,19.315,14.904,19.315c4.807,0,8.76-1.775,11.865-5.321
	c3.101-3.545,4.65-8.187,4.65-13.924V85.534h16.236V157.191z"/>
<path fill="#727272" d="M1079.736,157.191h-15.744v-11.194h-0.28c-4.946,8.582-12.2,12.873-21.762,12.873
	c-7.048,0-12.562-1.911-16.55-5.737s-5.982-8.889-5.982-15.185c0-13.528,7.788-21.414,23.372-23.653l21.272-3.009
	c0-10.219-4.853-15.325-14.556-15.325c-8.536,0-16.234,2.939-23.094,8.819V90.572c7.559-4.477,16.282-6.719,26.173-6.719
	c18.102,0,27.15,8.913,27.15,26.733V157.191z M1064.062,121.994l-15.047,2.097c-4.663,0.609-8.174,1.74-10.53,3.393
	c-2.357,1.659-3.534,4.563-3.534,8.714c0,3.032,1.085,5.518,3.254,7.455c2.172,1.933,5.073,2.901,8.711,2.901
	c4.946,0,9.04-1.735,12.281-5.211c3.243-3.476,4.865-7.851,4.865-13.123V121.994z"/>
<path fill="#727272" d="M1141.11,101.001c-1.961-1.542-4.784-2.314-8.472-2.314c-4.804,0-8.814,2.172-12.031,6.509
	c-3.222,4.339-4.83,10.243-4.83,17.707v34.288h-16.235V85.534h16.235V100.3h0.278c1.584-5.041,4.025-8.97,7.313-11.792
	c3.292-2.82,6.963-4.231,11.023-4.231c2.938,0,5.176,0.442,6.719,1.328V101.001z"/>
<path fill="#727272" d="M1216.475,157.191h-16.234v-12.176h-0.28c-5.228,9.239-13.272,13.854-24.144,13.854
	c-8.816,0-15.873-3.204-21.168-9.621c-5.295-6.414-7.941-15.151-7.941-26.208c0-11.849,2.928-21.343,8.783-28.478
	c5.852-7.14,13.655-10.709,23.405-10.709c9.655,0,16.679,3.874,21.064,11.617h0.28V51.105h16.234V157.191z M1200.451,124.441v-9.375
	c0-5.088-1.656-9.401-4.97-12.947s-7.534-5.316-12.665-5.316c-6.065,0-10.837,2.262-14.311,6.785
	c-3.478,4.526-5.213,10.802-5.213,18.825c0,7.278,1.667,13.026,5.001,17.252c3.338,4.221,7.828,6.333,13.473,6.333
	c5.552,0,10.053-2.042,13.504-6.123C1198.722,135.789,1200.451,130.648,1200.451,124.441z"/>
</svg>
